<?xml version="1.0" standalone="no"?>
<!DOCTYPE svg PUBLIC "-//W3C//DTD SVG 20010904//EN"
 "http://www.w3.org/TR/2001/REC-SVG-20010904/DTD/svg10.dtd">
<svg version="1.0" xmlns="http://www.w3.org/2000/svg"
 width="462.000000pt" height="519.000000pt" viewBox="0 0 462.000000 519.000000"
 preserveAspectRatio="xMidYMid meet">
<metadata>
Created by potrace 1.16, written by Peter Selinger 2001-2019
</metadata>
<g transform="translate(0.000000,519.000000) scale(0.100000,-0.100000)"
fill="#000000" stroke="none">
<path d="M0 2595 l0 -2595 2310 0 2310 0 0 2595 0 2595 -2310 0 -2310 0 0
-2595z m3288 2229 c-29 -97 -225 -294 -489 -492 -118 -88 -196 -171 -203 -215
-3 -18 -8 -58 -11 -90 -11 -115 -60 -214 -159 -324 -27 -29 -56 -53 -65 -53
-26 0 -197 169 -215 212 -9 21 -16 58 -16 83 0 94 -61 179 -285 400 -89 88
-219 228 -288 312 -69 83 -130 153 -135 155 -5 1 -13 14 -17 28 -7 23 -7 24
10 10 10 -8 54 -60 98 -115 45 -55 118 -143 163 -196 l83 -97 63 13 c35 8 77
19 93 25 90 35 237 61 366 67 203 9 383 -19 545 -83 l64 -26 80 67 c97 81 210
201 276 294 27 38 50 68 51 67 1 -1 -3 -20 -9 -42z m-1766 -580 c83 -72 134
-104 191 -121 28 -8 69 -24 90 -34 l38 -20 -31 60 c-16 33 -30 64 -30 67 0 16
54 -45 98 -111 25 -38 57 -82 70 -96 l23 -26 -75 -12 c-186 -27 -243 -97 -182
-226 24 -52 89 -119 132 -135 40 -16 99 -12 155 10 109 41 124 89 65 206 -22
43 -27 59 -14 44 11 -14 53 -63 94 -110 40 -47 79 -93 86 -102 7 -10 39 -27
71 -38 l57 -20 50 21 c28 12 50 27 50 33 0 6 23 36 50 66 37 41 49 50 50 36 0
-36 50 -105 94 -131 133 -78 336 42 336 198 0 106 -163 176 -272 117 l-37 -20
20 35 c12 19 34 44 50 56 16 11 61 67 100 125 40 57 73 104 75 104 2 0 -6 -25
-17 -57 -10 -31 -19 -59 -19 -63 0 -4 30 4 68 16 37 13 75 24 85 24 23 0 89
43 143 92 l43 40 84 -84 c92 -91 141 -169 181 -288 27 -81 61 -242 70 -330 l5
-55 -23 70 c-30 92 -57 143 -95 179 -31 30 -44 27 -16 -4 27 -30 53 -123 60
-210 7 -81 -12 -278 -33 -355 -8 -29 -9 -28 -16 20 -9 63 -42 166 -61 191 -14
17 -14 16 -9 -21 13 -93 -46 -274 -110 -334 l-25 -23 26 -57 c77 -170 130
-367 158 -591 20 -158 32 -549 17 -535 -6 6 -26 63 -45 127 -18 65 -36 120
-39 123 -3 3 -8 -79 -11 -182 -6 -197 -30 -389 -73 -579 -26 -119 -83 -309
-90 -302 -2 3 7 78 21 168 13 90 23 165 21 167 -2 2 -19 -36 -39 -84 -53 -126
-162 -304 -236 -385 l-64 -69 -19 29 c-34 54 -96 63 -180 27 -16 -6 -17 -3
-12 24 4 17 3 38 0 48 -6 14 -10 11 -28 -17 l-21 -35 -28 35 -29 34 0 -54 c-1
-65 -24 -100 -65 -100 -18 0 -40 -13 -66 -39 -37 -36 -39 -42 -39 -100 l0 -61
-65 0 -65 0 0 41 c0 22 -5 50 -11 61 -6 11 -7 18 -2 15 13 -8 57 40 73 80 7
19 9 44 5 60 l-7 28 -16 -32 c-20 -41 -37 -42 -61 -2 l-19 30 -6 -36 c-4 -19
-4 -41 0 -48 4 -6 -2 -4 -13 5 -24 22 -45 23 -84 2 -29 -14 -33 -14 -82 10
-61 31 -91 33 -109 7 -7 -10 -32 -22 -55 -25 -22 -4 -49 -13 -59 -21 -16 -11
-25 -8 -75 31 -209 160 -324 401 -394 827 -3 20 -10 37 -14 37 -14 0 -21 -38
-28 -140 -6 -83 -8 -90 -15 -55 -19 95 -21 380 -4 585 10 112 20 208 22 212 3
4 1 8 -5 8 -14 0 -48 -77 -66 -150 -9 -36 -19 -117 -22 -180 -9 -149 -22 -94
-22 95 -1 221 46 502 136 814 73 250 70 234 39 272 -35 41 -64 99 -74 146 l-8
38 -23 -69 c-13 -38 -27 -103 -30 -145 l-7 -76 -14 105 c-15 114 -20 401 -7
490 l7 55 -42 -65 c-23 -36 -52 -94 -65 -130 l-24 -65 6 70 c14 149 72 359
132 480 44 86 113 186 170 247 31 32 59 58 64 58 4 0 31 -21 61 -46z"/>
<path d="M2292 3525 c-37 -31 -61 -88 -69 -166 -3 -32 -9 -59 -14 -59 -4 0
-21 14 -38 31 -21 21 -31 40 -31 62 0 30 -3 27 -35 -33 -41 -77 -100 -133
-175 -168 -45 -21 -74 -27 -162 -30 l-107 -5 15 -36 c24 -58 63 -110 97 -131
39 -24 36 -24 -34 -4 -74 22 -122 48 -170 91 l-41 37 17 -39 c21 -52 39 -79
89 -134 l41 -45 -54 39 c-66 48 -56 21 20 -54 99 -97 218 -134 349 -107 113
24 187 64 347 189 l23 19 63 -59 c74 -69 164 -119 241 -135 62 -12 63 -15 29
-81 -30 -59 -61 -48 -109 37 -29 54 -33 56 -40 35 -12 -39 -5 -174 12 -226 9
-26 25 -63 37 -82 l21 -34 38 44 c22 24 53 71 71 104 26 50 31 72 32 128 l0
67 30 0 c50 0 128 25 204 65 39 21 70 40 67 42 -2 3 -19 -3 -37 -13 -31 -16
-30 -14 14 31 27 26 64 79 83 116 l34 69 -45 -35 c-42 -31 -89 -50 -180 -70
-28 -6 -28 -5 13 25 43 31 72 80 72 120 0 15 -7 20 -28 20 -49 0 -183 39 -230
66 -60 35 -117 88 -155 143 l-31 45 -9 -34 c-9 -38 -43 -80 -64 -80 -8 0 -13
12 -13 29 0 56 -41 164 -75 198 -40 40 -73 42 -113 8z"/>
<path d="M2125 2745 c-12 -95 17 -235 60 -291 15 -18 16 -18 53 22 64 70 95
138 100 220 2 40 0 79 -6 90 -9 17 -15 10 -41 -49 -43 -95 -76 -89 -125 22
-11 22 -23 41 -27 41 -4 0 -11 -25 -14 -55z"/>
<path d="M2946 2778 c-21 -81 7 -252 53 -322 l19 -28 42 53 c80 101 118 224
90 294 l-12 30 -29 -63 c-15 -34 -35 -65 -44 -68 -21 -9 -52 21 -81 79 -13 26
-26 47 -28 47 -2 0 -6 -10 -10 -22z"/>
<path d="M1627 2569 c-23 -84 7 -274 51 -329 l18 -22 37 41 c20 22 51 69 68
103 27 51 33 75 33 130 1 86 -16 109 -39 52 -38 -95 -53 -108 -86 -78 -12 11
-33 43 -49 73 -24 49 -27 52 -33 30z"/>
<path d="M1927 2519 c-22 -82 1 -245 45 -317 l21 -33 33 32 c18 18 50 64 70
103 32 61 38 81 38 138 1 86 -17 109 -39 52 -26 -64 -37 -83 -53 -89 -21 -8
-50 21 -82 84 -24 49 -27 52 -33 30z"/>
<path d="M2754 2473 c-4 -33 -2 -89 4 -130 12 -74 49 -168 67 -168 16 0 83
104 105 162 21 56 27 157 10 183 -12 19 -14 15 -34 -47 -23 -70 -40 -83 -71
-53 -13 12 -32 42 -42 66 -10 24 -21 44 -25 44 -4 0 -10 -26 -14 -57z"/>
<path d="M2197 2329 c-11 -38 -8 -170 4 -214 6 -22 20 -62 31 -88 20 -46 21
-47 40 -30 35 31 87 129 104 193 16 62 13 143 -5 155 -5 2 -18 -23 -30 -56
-13 -33 -29 -63 -37 -66 -22 -8 -54 25 -79 81 -20 45 -22 47 -28 25z"/>
<path d="M2466 2319 c-18 -90 3 -224 47 -302 l22 -39 39 43 c82 93 125 230 96
304 l-12 30 -19 -45 c-48 -115 -80 -117 -135 -7 -13 26 -26 47 -28 47 -2 0 -6
-14 -10 -31z"/>
<path d="M1846 2152 c-14 -23 -18 -131 -6 -187 13 -65 56 -165 71 -165 17 0
99 116 119 168 27 71 27 192 0 192 -5 0 -16 -22 -25 -49 -33 -99 -71 -101
-122 -5 -17 31 -33 52 -37 46z"/>
<path d="M2946 2138 c-22 -83 8 -261 54 -318 l20 -25 29 35 c83 98 124 211
105 287 -5 21 -13 38 -17 38 -5 0 -18 -24 -30 -54 -28 -68 -48 -82 -77 -56
-12 11 -33 41 -46 68 -13 26 -26 47 -28 47 -2 0 -6 -10 -10 -22z"/>
<path d="M1622 2023 c3 -82 32 -158 59 -158 20 0 88 94 100 138 10 37 4 97 -9
97 -4 0 -16 -17 -27 -37 -28 -52 -48 -53 -82 -4 -15 22 -32 40 -37 41 -4 0 -6
-35 -4 -77z"/>
<path d="M2146 1949 c-18 -92 1 -214 46 -304 l21 -39 43 47 c76 84 116 197
100 282 -9 46 -24 41 -45 -13 -9 -23 -25 -52 -34 -63 -16 -19 -20 -19 -40 -6
-12 8 -35 38 -50 68 -35 67 -33 66 -41 28z"/>
<path d="M2657 1959 c-4 -13 -7 -37 -7 -53 0 -28 -1 -29 -14 -11 -13 18 -16
16 -38 -35 -14 -30 -33 -62 -43 -70 -16 -13 -21 -11 -51 24 -18 21 -39 55 -45
75 -11 31 -13 33 -20 16 -4 -11 -8 -59 -8 -106 -1 -92 15 -162 50 -219 l22
-35 38 44 c45 50 99 153 99 190 1 16 11 -4 25 -49 14 -41 33 -86 44 -99 l18
-24 43 54 c64 80 93 151 94 226 1 89 -16 101 -47 32 -13 -30 -30 -59 -39 -66
-22 -19 -53 8 -87 74 -25 51 -28 54 -34 32z"/>
<path d="M1904 1723 c-4 -39 -2 -91 4 -126 12 -64 55 -167 71 -167 16 0 80 82
108 138 14 29 28 75 31 102 5 55 -4 120 -18 120 -4 0 -16 -22 -25 -49 -18 -55
-47 -86 -70 -78 -17 7 -75 94 -75 114 0 7 -4 13 -9 13 -5 0 -13 -30 -17 -67z"/>
<path d="M2907 1688 c-3 -24 -2 -63 3 -88 10 -55 -13 -113 -47 -118 -18 -3
-29 7 -52 43 l-29 46 -7 -54 c-8 -61 12 -145 43 -186 l19 -23 35 43 c46 56 68
101 68 135 0 26 1 26 13 10 13 -17 16 -15 50 24 50 58 67 99 67 159 0 51 -13
68 -25 32 -3 -11 -15 -31 -26 -45 -17 -21 -24 -24 -40 -15 -11 5 -27 26 -36
45 -9 19 -20 34 -23 34 -4 0 -10 -19 -13 -42z"/>
<path d="M1707 1670 c-17 -62 -1 -147 38 -206 l17 -26 25 24 c45 42 83 119 83
170 0 58 -16 70 -35 25 -7 -18 -21 -40 -31 -47 -14 -13 -19 -11 -43 16 -14 17
-31 39 -37 49 -10 18 -11 17 -17 -5z"/>
<path d="M2157 1614 c-4 -4 -7 -37 -7 -73 0 -49 7 -80 25 -118 13 -29 29 -53
34 -53 6 0 28 23 50 50 39 49 61 102 61 145 0 24 -20 54 -26 40 -14 -34 -46
-75 -57 -75 -16 0 -39 24 -59 63 -8 15 -17 25 -21 21z"/>
<path d="M2344 1415 c-16 -64 23 -225 55 -225 15 0 73 72 92 114 20 44 24 102
10 125 -8 12 -12 9 -22 -15 -17 -38 -39 -64 -56 -64 -7 0 -27 21 -43 46 l-29
46 -7 -27z"/>
<path d="M2627 1363 c-11 -10 -8 -129 3 -159 8 -21 7 -32 -6 -52 l-17 -26 -29
34 -28 34 0 -52 c0 -53 21 -112 40 -112 6 0 24 21 41 48 16 26 32 45 35 44 9
-6 63 49 85 85 11 18 24 47 30 65 9 33 3 98 -10 98 -4 0 -17 -20 -29 -45 -12
-25 -25 -45 -30 -45 -15 0 -40 24 -59 57 -11 18 -23 30 -26 26z"/>
<path d="M1704 1284 c-9 -49 2 -116 27 -167 12 -23 23 -44 25 -46 9 -10 67 57
90 101 24 48 33 131 15 143 -6 3 -19 -15 -30 -40 -28 -62 -59 -57 -96 16 -9
16 -17 29 -20 29 -2 0 -7 -16 -11 -36z"/>
<path d="M1977 1298 c-16 -58 4 -168 38 -212 15 -19 15 -19 41 5 64 60 103
173 75 218 -7 11 -15 3 -31 -32 -29 -61 -51 -61 -89 -1 -26 43 -29 44 -34 22z"/>
</g>
</svg>
